<?xml version="1.0" encoding="utf-8"?>
<!-- Generator: Adobe Illustrator 22.0.1, SVG Export Plug-In . SVG Version: 6.00 Build 0)  -->
<svg version="1.1" id="Layer_1" xmlns="http://www.w3.org/2000/svg" xmlns:xlink="http://www.w3.org/1999/xlink" x="0px" y="0px"
	 viewBox="0 0 283.5 162" style="enable-background:new 0 0 283.5 162;" xml:space="preserve">
<style type="text/css">
	.st0{fill:#FFFFFF;}
</style>
<g>
	<path class="st0" d="M53,153.1v-32.4h23.4v5.5H59.1v11.1h12.7v5.5H59.1v4.8h17.3v5.5H53z"/>
	<path class="st0" d="M143.5,153.1v-32.4h23.4v5.5h-17.3v11.1h12.7v5.5h-12.7v4.8h17.3v5.5H143.5z"/>
	<path class="st0" d="M86.8,133.3l0.1,19.8h-6.1l0.1-33.4l22.2,20.8l0-19.9h6.1l-0.1,33.7L86.8,133.3z"/>
	<path class="st0" d="M122.8,153.1v-27h-10.6v-5.5h27.5v5.5h-10.7v27H122.8z"/>
</g>
<polygon class="st0" points="49,152.8 37.2,133.8 48.9,120.7 39.9,120.6 28.5,133.2 28.5,120.6 22.1,120.6 22.1,153.1 28.5,153.1 
	28.5,143.2 32.6,138.6 41.3,152.8 "/>
<path class="st0" d="M257.4,153.1h6.8l-17.4-33.9l-17.4,33.9h6.8l2.6-5.4h16.1L257.4,153.1z M246.7,131.7l5.4,10.5h-10.7
	L246.7,131.7z"/>
<path class="st0" d="M227.2,153.1l-6.6-10.8c3.9-2,6.1-5.3,6.1-9.9c0-8.9-6.1-11.9-15.8-11.9h-7.6v32.6h5.5v-9.1h3.3
	c1,0,1.9-0.1,2.8-0.1l5.6,9.3H227.2z M208.8,137.8v-11.3l5.6,0.2c4.5,0,6.6,2.2,6.6,5.5c0,3.6-2.4,5.8-7.4,5.8L208.8,137.8z"/>
<path class="st0" d="M198.5,146.4c-3,4-7.8,6.7-13.1,6.7c-9.1,0-16.3-7.4-16.3-16.3c0-8.9,7.3-16.3,16.3-16.3
	c5.6,0,10.5,2.8,13.4,7.1l-4.8,3.8c-1.8-2.9-5.1-4.8-8.7-4.8c-5.7,0-10.4,4.5-10.4,10.2c0,5.5,4.6,10.5,10.1,10.5
	c2.9,0,5.5-1.1,7.4-2.9v-2.8H185v-5.6h13.5L198.5,146.4z"/>
<g>
	<path class="st0" d="M148.1,73.5c-1.8-3-5.8-7.1-8.1-12.6c-2.3,5.5-6.3,9.6-8.1,12.6c-1.8,3-3.9,6.1-3.8,10.9h0
		c0,6.6,5.3,11.9,11.9,11.9c6.6,0,11.9-5.3,11.9-11.9C151.9,79.6,149.8,76.5,148.1,73.5z"/>
</g>
<path class="st0" d="M126.3,90.1c-2.8-9.4,0.3-13.9,3.4-18.7c3.4-5.2,8-8.1,8.7-22.4c0.8-15.7,0.9-30.5,1.1-34
	c-4.7,5.9-13.5,20.4-15.9,25.4c-2.3,5.1-7.9,14.7-7.2,26.6C117.6,83.9,126.3,90.1,126.3,90.1z"/>
<path class="st0" d="M153.6,90.1c2.8-9.4-0.3-13.9-3.4-18.7c-3.4-5.2-8-8.1-8.7-22.4c-0.8-15.7-0.9-30.5-1.1-34
	c4.7,5.9,13.5,20.4,15.9,25.4c2.3,5.1,7.9,14.7,7.2,26.6C162.3,83.9,153.6,90.1,153.6,90.1z"/>
<path class="st0" d="M139.7,108.3c-28,0-50.8-22.8-50.8-50.8s22.8-50.8,50.8-50.8s50.8,22.8,50.8,50.8S167.7,108.3,139.7,108.3z
	 M139.7,12c-25,0-45.4,20.4-45.4,45.4s20.4,45.4,45.4,45.4c25,0,45.4-20.4,45.4-45.4S164.7,12,139.7,12z"/>
<path class="st0" d="M141,66.7c0.6,1,1.4,1.9,2.1,2.8c0.7,0.9,1.4,1.9,2.1,2.8c1.4,1.9,2.7,3.9,3.7,6c0.5,1.1,1,2.2,1.3,3.3
	c0.3,1.2,0.4,2.4,0.2,3.6c-0.1,1.2-0.3,2.4-0.9,3.5c-0.6,1.1-1.1,2.1-2.5,3c0,0-0.6,0.4-0.7,0.1c-0.1-0.2,0.7-0.7,0.7-0.7
	c0.5-0.4,0.8-0.8,1.1-1.1c0.3-0.4,0.6-0.9,0.9-1.7c0.4-0.8,0.6-2,0.7-3.1c0.1-1.1,0-2.2-0.3-3.3c-0.3-1.1-0.7-2.2-1.2-3.2
	c-1-2.1-2.3-4-3.6-5.9c-1.3-1.9-2.7-3.7-4-5.7c0,0-0.3-0.5-0.2-0.6C140.6,66.2,141,66.7,141,66.7z"/>
</svg>
